<svg xmlns="http://www.w3.org/2000/svg" viewBox="0 0 32.43 27.93"><defs><style>.cls-1,.cls-2{fill:none;stroke-miterlimit:10;}.cls-1{stroke:#fff;}.cls-2{stroke:#0bbcd5;}</style></defs><title>Asset 2</title><g id="Layer_2" data-name="Layer 2"><g id="Layer_1-2" data-name="Layer 1"><polygon class="cls-1" points="31.47 14.27 23.51 19.62 19.66 22.2 19.66 22.21 12.03 27.33 0.93 20.21 3.72 18.44 12.03 23.77 19.66 18.64 19.9 18.49 19.9 21.79 23.28 19.5 23.32 16.19 23.53 16.05 28.59 12.65 31.47 14.27"/><polygon class="cls-1" points="23.55 12.2 23.53 16.05 23.32 16.19 23.36 12.6 19.9 14.91 19.9 18.49 19.66 18.64 12.03 23.77 3.72 18.44 0.93 16.66 3.94 14.75 6.73 16.54 12.03 19.93 19.74 14.75 23.55 12.2"/><polygon class="cls-1" points="31.47 10.72 28.59 12.65 23.53 16.05 23.55 12.2 25.48 10.9 28.36 8.97 31.47 10.72"/><polygon class="cls-1" points="19.74 14.75 12.03 19.93 6.73 16.54 3.94 14.75 0.93 12.82 8.57 7.97 8.58 7.97 11.67 9.85 14.54 11.59 19.74 14.75"/><path class="cls-2" d="M25.48,10.9"/><polyline class="cls-1" points="25.48 10.9 23.55 12.2 19.74 14.75 14.54 11.59 11.67 9.85 8.58 7.97 12.52 5.48 15.61 7.36 18.47 9.09"/><path class="cls-2" d="M20.25,8"/><polyline class="cls-1" points="18.47 9.09 15.61 7.36 12.52 5.48 20.25 0.58 31.47 6.88 28.36 8.97 25.48 10.9"/><line class="cls-1" x1="23.51" y1="12.15" x2="18.48" y2="9.09"/></g></g></svg>