<?xml version="1.0" encoding="utf-8"?>
<!-- Generator: Adobe Illustrator 20.1.0, SVG Export Plug-In . SVG Version: 6.00 Build 0)  -->
<svg version="1.1" id="Layer_1" xmlns="http://www.w3.org/2000/svg" xmlns:xlink="http://www.w3.org/1999/xlink" x="0px" y="0px"
	 viewBox="0 0 42.3 42" style="enable-background:new 0 0 42.3 42;" xml:space="preserve">
<style type="text/css">
	.st0{fill:#5F6979;}
	.st1{fill:none;stroke:#5F6979;stroke-width:3;stroke-miterlimit:10;}
	.st2{fill:none;stroke:#5F6979;stroke-width:0.8951;stroke-linecap:round;stroke-miterlimit:10;}
</style>
<path class="st0" d="M21.2,31.3c-1.3-0.1-2.6-0.1-4-0.2c-1.5-0.2-3.1-0.5-3.4-2.3c-0.3-1.7,0.6-2.9,2.2-3.4c2.6-0.9,3.3-2.5,1.9-4.9
	c-1-1.7-0.6-3.6-0.4-5.3c0.2-1.9,1.6-2.9,3.4-3c2-0.1,3.6,0.8,4,2.9c0.3,1.9,0.7,3.9-0.5,5.8c-1.2,1.9-0.8,3.5,1.4,4.3
	c1.7,0.6,3.1,1.5,2.8,3.5C28.1,31,26,31,24.2,31.1C23.2,31.2,21.2,31.2,21.2,31.3z"/>
<circle class="st1" cx="21.2" cy="20.8" r="17.8"/>
<line class="st2" x1="29.6" y1="11.6" x2="29.6" y2="15.3"/>
<line class="st2" x1="27.6" y1="13.4" x2="31.6" y2="13.4"/>
</svg>
