<svg id="Layer_1" data-name="Layer 1" xmlns="http://www.w3.org/2000/svg" viewBox="0 0 633.08 793.09"><defs><style>.cls-1,.cls-3{fill:#fff;}.cls-1,.cls-2,.cls-4{fill-rule:evenodd;}.cls-4{stroke:#fff;stroke-linecap:square;stroke-linejoin:round;stroke-width:1.48px;}</style></defs><title>CryptoBeastLogo</title><polygon class="cls-1" points="507.71 666.59 169.19 666.59 139.14 124.55 469.64 124.55 507.71 666.59"/><path class="cls-2" d="M876.84,994.43c-10.53,0-20.91-.7-31.9-1.44-5-.34-10.27-.69-15.56-1a3.69,3.69,0,0,1-3.3-2.51l-4.92-14.59-32.16-4a3.69,3.69,0,0,1-3.06-2.55q-1.94-6.13-4-12.49l-.39-1.23-4.15-.89-10.95-2.34a3.69,3.69,0,0,1-2.81-2.71c-1.07-4.23-2-8-3.1-12.3l-.25-1-30.68-4.24a3.69,3.69,0,0,1-3-2.49c-1.31-3.93-2.83-8.5-4.64-14l-15-3.94a3.69,3.69,0,0,1-2.68-2.83l-2.62-12.75-14.44-3.76a3.69,3.69,0,0,1-2.64-2.63q-1.69-6.41-3.69-14l-13.27-2.9a3.69,3.69,0,0,1-2.76-2.59c-1.38-4.84-2.86-10.06-4.27-15l-12.54-2.21a3.69,3.69,0,0,1-2.94-2.72l-3.8-14.81-14.08-4.27a3.69,3.69,0,0,1-2.59-3.05s-3.22-24.51-4.08-31.08l-13.66-4.25a3.69,3.69,0,0,1-2.51-2.73c-.68-3.05-3.34-15-3.34-15l-13.9-4.42a3.69,3.69,0,0,1-2.56-3.22l-4-50.71-13.8-3.86a3.69,3.69,0,0,1-2.7-3.56V631.27a3.69,3.69,0,0,1,3.49-3.69l52.91-2.89,4.88-14.14a3.69,3.69,0,0,1,3.27-2.48L679.8,605c.34-2.71.68-5.46,1-8.43l-14.72-4.6a3.69,3.69,0,0,1-2.58-3.22s-2.16-26.23-2.71-33l-14.5-5.34a3.69,3.69,0,0,1-2.42-3.46V434.46a3.69,3.69,0,0,1,2.4-3.46l1.75-.65,12.56-4.69,2.94-32.81a3.69,3.69,0,0,1,2.49-3.17l14.16-4.82c1.17-10.15,3.71-32.19,3.71-32.19a3.69,3.69,0,0,1,2.67-3.13l14-3.92c.94-7.78,3.78-31.28,3.78-31.28a3.69,3.69,0,0,1,2.49-3.06l12.88-4.33,1.31-.44,3.05-14.59a3.69,3.69,0,0,1,2.73-2.83l13.26-3.26,3.55-15.1A3.69,3.69,0,0,1,746.5,268l12.75-2.46,1.14-4.06c.91-3.24,1.9-6.77,3-10.79a3.69,3.69,0,0,1,2.9-2.64l13.2-2.37,4.12-13.87a3.69,3.69,0,0,1,2.75-2.56l15.14-3.31,4.6-14.57a3.69,3.69,0,0,1,3.52-2.58H942.29a3.69,3.69,0,0,1,3.57,2.76l3.65,14,16.18,3.75a3.69,3.69,0,0,1,2.75,2.69l3.29,12.92,4.8.87,26.82,4.87a3.69,3.69,0,0,1,3,3.07l.62,4c1.38,9,2.72,17.66,4.19,27.2l13.81,4.23a3.69,3.69,0,0,1,2.52,2.74l3.15,14.41,14.13,4.19a3.69,3.69,0,0,1,2.62,3.12c1.23,10.65,2.37,20.57,3.58,31.21l14.24,4.32a3.69,3.69,0,0,1,2.6,3.11l3.69,32.27L1085,388.2a3.69,3.69,0,0,1,2.7,3.21c1,10.17,2,20.88,3.18,33.12l14.11,5.21a3.69,3.69,0,0,1,2.41,3.46V547.63a3.69,3.69,0,0,1-2.38,3.45L1091,556.45c-.56,6.17-3,32.71-3,32.71a3.69,3.69,0,0,1-2.54,3.18l-12.66,4.08-1.26.4v7.79l34.85,2.26,16.22,1.05a3.69,3.69,0,0,1,3.23,2.42c1.7,4.67,3.34,9.16,5.11,14.05l53.38,3.25a3.69,3.69,0,0,1,3.44,3.22c3.33,26.24,1.73,51.91.18,76.75-.39,6.26-.79,12.74-1.11,19.13a3.69,3.69,0,0,1-2.67,3.36l-13.82,4c-1.08,10.16-2.22,20.83-3.5,32.81a3.69,3.69,0,0,1-2.49,3.11l-13.82,4.63-3.18,15.13a3.69,3.69,0,0,1-2.63,2.8l-13.5,3.74-4,31.09a3.69,3.69,0,0,1-2.58,3.06L1110,834.93l-2.34,13.87a3.69,3.69,0,0,1-2.83,3l-14.11,3.2-3.5,14.36a3.69,3.69,0,0,1-2.86,2.75L1071,874.79s-2.56,9.17-4,14.39a3.69,3.69,0,0,1-2.74,2.61l-14,3.17c-1,4.4-2,8.54-3.13,13.33a3.69,3.69,0,0,1-2.69,2.74l-14.65,3.7-4,13.94a3.69,3.69,0,0,1-3.07,2.64l-9.75,1.27-21.66,2.81c-.83,3.7-1.73,7.71-2.86,12.68a3.69,3.69,0,0,1-2.66,2.75l-16,4.22-3.7,13.28A3.69,3.69,0,0,1,963,971l-4.63.56L930.32,975,927,988.77a3.69,3.69,0,0,1-3.35,2.83c-4.37.29-8.74.65-13.37,1-10.47.86-21.3,1.75-32.18,1.8ZM927.77,854.9a3.69,3.69,0,0,1,1.31,2.53l.68,8.23,10.36-.46,1.07-10c.83-7.78,1.63-15.25,2.45-22.93a3.69,3.69,0,0,1,2.57-3.13l13.9-4.37c.56-5.93,3.09-33,3.09-33a3.69,3.69,0,0,1,2.49-3.15l12.9-4.36,1.28-.43,3.22-52a3.69,3.69,0,0,1,2.77-3.35c1.52-.39,2.81-.69,3.94-1a35.45,35.45,0,0,0,4.7-1.29,57.31,57.31,0,0,0,5.38-2.57l.06,0V675.86h-9.31L986.27,690a3.69,3.69,0,0,1-3.22,2.6L950,695.43l-5.09,15a3.69,3.69,0,0,1-3.5,2.51H828.06a3.69,3.69,0,0,1-3.46-2.39l-5.42-14.4-50.46-3.63a3.69,3.69,0,0,1-3.24-2.52l-4.95-14.9-9.18.49v30l13.94,5.16a3.69,3.69,0,0,1,2.4,3.21c1,13.72,3.6,52,3.6,52l13.51,4a3.69,3.69,0,0,1,2.64,3.24s3,35.86,4.24,51.32l13.53,3.86a3.69,3.69,0,0,1,2.65,3.11c1.07,9,4,33.6,4,33.6h8.94c1.58-4.47,3.15-8.9,4.74-13.32a3.69,3.69,0,0,1,2.07-2.17l13.77-5.66v-68l-15.68-5.71a3.69,3.69,0,0,1-2.41-3.08c-.25-2.32-.51-4.48-.77-6.53a120.72,120.72,0,0,1-1.14-12.68,103.34,103.34,0,0,1,.67-12c.15-1.57.3-3.12.41-4.64a3.69,3.69,0,0,1,3.13-3.38c10.88-1.64,27.43-2.58,45.4-2.58,19.15,0,45.57,1.2,57,4.58a3.69,3.69,0,0,1,2.64,3.76l-2,34.45a3.69,3.69,0,0,1-2.51,3.28l-14.82,5c0,9.55-.13,21.8-.25,33.67-.11,11.61-.21,22.62-.23,30.74ZM806.29,644.58,946,644s-.72-14.1-1-18.74l-39.9-20H846.44l-40.15,20Zm-37.8-115.77a3.69,3.69,0,0,1,3,3.62v53.47L824.93,571a3.69,3.69,0,0,1,1-.14l98.33-.07a3.69,3.69,0,0,1,.78.08c1.76.38,39.08,8.47,56.58,14.3V530.78a3.69,3.69,0,0,1,3.44-3.68l29-2,5.08-.34,4.48-32a3.69,3.69,0,0,1,2.5-3l13.71-4.54V415.88l-13.9-5a3.69,3.69,0,0,1-2.41-3c-1.22-10.13-3.74-31-3.74-31l-14.06-3.24a3.69,3.69,0,0,1-2.71-2.54l-4.75-16-78.65-15.41-21.63,31.65a3.69,3.69,0,0,1-2.94,1.61l-43.29,1.24a3.69,3.69,0,0,1-3.32-2.08l-14.53-29.93L753,355.49l-4.11,15.41a3.69,3.69,0,0,1-2.57,2.6l-12.12,3.38-2.23.62s-3.35,25.11-4.27,32.06a3.69,3.69,0,0,1-2.65,3.07l-12.92,3.68v68.56l2.81.82,10.27,3a3.69,3.69,0,0,1,2.57,2.79l3.11,14.95,13.47,4.45a3.69,3.69,0,0,1,2.38,2.44l3.54,11.79Z" transform="translate(-560.38 -205.04)"/><path class="cls-3" d="M942.29,212.42c1.48,5.66,2.69,10.3,4.21,16.15l18.35,4.25c1.3,5.13,2.5,9.79,3.87,15.22l33.95,6.16c1.72,11.12,3.34,21.64,5.16,33.52l16,4.91c1.11,5.1,2.31,10.59,3.61,16.54L1043.7,314c1.32,11.45,2.54,22.06,3.86,33.62l16.56,5c1.31,11.49,2.62,22.84,4,34.76l16,4.37c1,10.8,2.13,22.21,3.4,35.42l16.29,6V547.63l-16.23,6.19c-1,10.92-2,22.33-3.17,35-5.18,1.68-10.42,3.36-16.47,5.31v13.95l54.52,3.54c2,5.38,3.83,10.53,5.94,16.33l55.8,3.4c4.12,32.45.62,63.53-1,95.23L1167,731.22c-1.16,10.9-2.38,22.33-3.76,35.28l-15.82,5.3c-1.08,5.13-2.25,10.67-3.62,17.2l-15.86,4.39-4.35,33.52-16.77,5.15c-.76,4.46-1.56,9.22-2.72,16.11l-16.34,3.7c-1.24,5.12-2.57,10.53-4,16.58l-15.59,3.16c-1.37,4.9-2.87,10.27-4.62,16.57l-16.21,3.68c-1.24,5.28-2.35,10-3.66,15.58l-16.71,4.22-4.58,16-34,4.41c-1,4.43-2,9.08-3.43,15.2L966.86,952l-4.27,15.32-35.27,4.25-3.9,16.32c-14.5,1-29.91,2.74-45.33,2.82h-1.25c-15.31,0-30.65-1.52-47.27-2.41l-5.66-16.79-34.46-4.29q-2.44-7.71-5-15.77l-17.2-3.68c-1.35-5.33-2.52-10-4-15.72l-33.15-4.58c-1.46-4.38-3.18-9.55-5.27-15.85l-16.91-4.45c-.86-4.19-1.83-8.92-3.08-15l-16.66-4.34q-1.93-7.32-4.27-16.18l-15.48-3.38c-1.59-5.57-3.31-11.64-4.9-17.23l-14.82-2.61c-1.25-4.9-2.65-10.3-4.32-16.83l-16.07-4.87c-1.41-10.74-2.81-21.31-4.39-33.42l-15.92-5c-1.12-5.07-2.36-10.58-3.81-17.1l-15.92-5.06c-1.43-17.86-2.8-35.1-4.25-53.28l-16.29-4.55V631.27l55.39-3,5.68-16.48,54.24-3.3c.58-4.61,1.14-9.16,1.81-14.54l-17.67-5.52c-.93-11.39-1.88-22.81-2.9-35.33l-16.71-6.15V434.46c5.17-1.93,10.33-3.87,16.49-6.15,1-11.08,2-22.51,3.15-35.13l16.37-5.57c1.27-11.05,2.58-22.39,4-34.52l16.34-4.59c1.39-11.46,2.67-22.07,4.07-33.73l16.19-5.44c1.11-5.32,2.27-10.84,3.49-16.66l15.46-3.8c1.2-5.1,2.49-10.56,4.07-17.3l15-2.89c1.38-4.94,2.9-10.31,4.78-17.05l15.44-2.77c1.33-4.5,2.9-9.77,4.76-16.05L804.4,229l5.24-16.61H942.29m-90.62,158L835.94,338l-85.87,14.25-4.72,17.71-16.69,4.66c-1.66,12.45-3.17,23.77-4.59,34.48l-15.6,4.44v74.11l15.73,4.6,3.55,17,15.49,5.12,4.17,13.9,20.35,4.15v58.34l58.16-16.23,98.33-.07s47.55,10.27,61.06,16V530.78l37-2.51c1.69-12.12,3.27-23.37,4.9-35l16.24-5.38V413.29l-16.34-5.91c-1.43-11.79-2.7-22.37-4.05-33.61l-16.59-3.82c-1.81-6.08-3.38-11.39-5.39-18.14l-83.23-16.3-23,33.66-43.18,1.24M802.6,648.29l147.27-.59c-.5-9.83-.86-16.78-1.25-24.75L906,601.58H845.57l-43,21.36v25.34m6,220.41h14.83c1.88-5.3,3.73-10.54,5.61-15.77l16.06-6.6V773.24L827,766.64c-.78-7.35-1.78-13.11-1.89-18.89-.11-5.55.69-11.11,1.07-16.3,11.41-1.72,28.1-2.54,44.85-2.54,23,0,46.22,1.55,56,4.43-.69,11.73-1.4,23.82-2,34.45l-17.33,5.84c0,19.13-.48,51.76-.48,68.79l18.24,15.31,1.65,20.07s-.4-4.91-.68-8.3l17.07-.76c1.37-12.83,2.58-24.2,3.86-36.07l16.24-5.11c1.17-12.4,2.22-23.82,3.32-35.49l16.53-5.58c1.17-18.88,2.29-36.88,3.37-54.44,4.36-1.11,6.82-1.5,9.07-2.38,2.8-1.1,5.44-2.62,7.78-3.78V672.17H987.88L982.74,689l-35.48,3c-2,5.92-3.79,11.15-5.87,17.26H828.06l-6.25-16.61L769,688.8l-5.84-17.57-15.49.83v36.07L764,714.17c1.32,19,2.56,37,3.78,54.54l16,4.7q2.3,27.86,4.45,53.87l16,4.56c1.49,12.47,2.93,24.52,4.4,36.85M942.29,205H809.64a7.39,7.39,0,0,0-7,5.16l-2,6.36-1.95,6.18-13,2.86a7.39,7.39,0,0,0-5.5,5.12l-2.21,7.45-1.26,4.24-4.45.8-6.52,1.17a7.38,7.38,0,0,0-5.81,5.28c-1.13,4-2.12,7.57-3,10.82l-.51,1.83-10.51,2a7.39,7.39,0,0,0-5.79,5.56l-3,12.89-4.5,1.11-6.56,1.61a7.39,7.39,0,0,0-5.46,5.66l-1.33,6.37-1.29,6.15-12.19,4.1a7.39,7.39,0,0,0-5,6.11l-1,8.07c-.85,7-1.66,13.77-2.51,20.77L685.59,346a7.38,7.38,0,0,0-5.34,6.27l-.42,3.67c-1,9.08-2,17.75-3,26.21l-6,2-6,2a7.39,7.39,0,0,0-5,6.33L658.5,408l-1.35,15-10.4,3.88-1.73.65a7.39,7.39,0,0,0-4.8,6.92V546.93a7.39,7.39,0,0,0,4.83,6.93l12.29,4.53c.49,6,1,11.77,1.43,17.43l1.09,13.2a7.39,7.39,0,0,0,5.16,6.45l9,2.8,2.81.88-.29,2.32-48.12,2.93a7.39,7.39,0,0,0-6.53,5l-4.07,11.79-50.43,2.75a7.39,7.39,0,0,0-7,7.37v77.11a7.39,7.39,0,0,0,5.4,7.11l11.32,3.16,2,24.49,1.89,23.65a7.39,7.39,0,0,0,5.12,6.45L597.94,777l.68,3c.79,3.55,1.52,6.8,2.2,9.89a7.38,7.38,0,0,0,5,5.45L617.24,799c.74,5.66,1.45,11,2.14,16.25L621,827.71a7.38,7.38,0,0,0,5.18,6.11l6.07,1.84,6,1.83,1.07,4.18,2.21,8.62a7.39,7.39,0,0,0,5.87,5.44l7.61,1.34,2.65.47,3.64,12.79a7.39,7.39,0,0,0,5.53,5.19l5,1.1,6,1.32,3.12,11.82a7.38,7.38,0,0,0,5.27,5.26l10.31,2.69,1.91.5.3,1.44,1.86,9.06a7.38,7.38,0,0,0,5.35,5.65l13,3.43,4,12.06a7.39,7.39,0,0,0,6,5l28.21,3.9c.93,3.7,1.79,7.14,2.74,10.9a7.38,7.38,0,0,0,5.63,5.41l10.78,2.3,2.22.47q1.89,5.93,3.72,11.68a7.38,7.38,0,0,0,6.13,5.1l24.27,3,5.59.7,1.52,4.51,2.66,7.88a7.38,7.38,0,0,0,6.6,5c5.27.28,10.48.63,15.51,1,11.06.75,21.5,1.45,32.15,1.45h1.29c11-.06,21.91-1,32.45-1.82,4.62-.38,9-.74,13.33-1a7.39,7.39,0,0,0,6.69-5.65l2.68-11.2,0-.12,25.78-3.1,4.38-.53a7.38,7.38,0,0,0,6.23-5.35l2.38-8.52.76-2.72,9.74-2.57,4.22-1.11a7.38,7.38,0,0,0,5.32-5.51c.88-3.87,1.62-7.16,2.29-10.17l18.44-2.39,10.4-1.35a7.38,7.38,0,0,0,6.15-5.29l2.13-7.44,1.28-4.47,2.35-.59,10.24-2.59a7.39,7.39,0,0,0,5.38-5.47l2.6-11.09,11.71-2.65a7.39,7.39,0,0,0,5.48-5.23c1.25-4.48,2.36-8.5,3.4-12.21l3.74-.76,7.41-1.5a7.39,7.39,0,0,0,5.72-5.49l1.36-5.59,1.6-6.55,1.11-.25,10.76-2.44a7.39,7.39,0,0,0,5.65-6c.58-3.42,1.07-6.32,1.51-8.91l.46-2.71,12.41-3.81a7.39,7.39,0,0,0,5.16-6.11l3.72-28.66,8-2.21,3.18-.88a7.38,7.38,0,0,0,5.25-5.6c1-4.54,1.81-8.6,2.6-12.38l.14-.68,11.82-4a7.39,7.39,0,0,0,5-6.21c1.18-11,2.24-20.92,3.24-30.34l11.43-3.29a7.38,7.38,0,0,0,5.33-6.73c.32-6.36.72-12.83,1.11-19.08,1.56-25,3.17-50.86-.2-77.45a7.39,7.39,0,0,0-6.88-6.44l-51-3.1c-1.46-4-2.85-7.85-4.29-11.78a7.39,7.39,0,0,0-6.46-4.84l-16.53-1.07-31.09-2v-1.64l11.36-3.67a7.39,7.39,0,0,0,5.08-6.36l1.11-12.21c.57-6.31,1.12-12.34,1.65-18.2l11.92-4.54a7.39,7.39,0,0,0,4.76-6.9V433.2a7.39,7.39,0,0,0-4.83-6.93l-11.94-4.41c-1.08-11.29-2-21.29-3-30.81a7.39,7.39,0,0,0-5.4-6.41l-11.15-3.05c-.71-6.23-1.41-12.32-2.11-18.39l-1.31-11.4a7.39,7.39,0,0,0-5.2-6.23l-8.91-2.7-3-.91c-1.12-9.74-2.18-19-3.31-28.81a7.39,7.39,0,0,0-5.24-6.24l-12-3.57-1.37-6.26-1.31-6a7.38,7.38,0,0,0-5-5.48l-11.6-3.56c-1.4-9.13-2.71-17.58-4.05-26.3l-.41-2.64a7.39,7.39,0,0,0-6-6.14l-26.83-4.87-2.45-.44-.83-3.26L972,231a7.39,7.39,0,0,0-5.49-5.38l-5-1.16-9-2.09-2.84-10.87-.25-1a7.39,7.39,0,0,0-7.15-5.52ZM851.67,377.78h.21l43.18-1.24a7.38,7.38,0,0,0,5.89-3.22l20.26-29.65,74.07,14.51.91,3.06L999.4,372a7.38,7.38,0,0,0,5.42,5.09l7.13,1.64,4.4,1c1.13,9.38,2.23,18.49,3.43,28.47a7.38,7.38,0,0,0,4.82,6.06l7.23,2.62,4.23,1.53v64.09l-5.78,1.92-5.4,1.79a7.39,7.39,0,0,0-5,6l-2,14.62-2,14.44-3.05.21-28,1.89a7.39,7.39,0,0,0-6.89,7.37v49.35c-19-5.71-50.5-12.53-52.11-12.88a7.38,7.38,0,0,0-1.56-.17h0l-98.33.07a7.38,7.38,0,0,0-2,.27L775.14,581V532.44a7.39,7.39,0,0,0-5.91-7.24l-12.92-2.63-3.1-.63-.79-2.62-2.12-7a7.39,7.39,0,0,0-4.75-4.89l-11.45-3.78-.63-3-2.05-9.84a7.39,7.39,0,0,0-5.15-5.58l-10.43-3.05v-63l4.15-1.18,6.09-1.73a7.38,7.38,0,0,0,5.3-6.13c.93-7,1.9-14.27,2.92-21.93l1-7.71,12-3.35a7.39,7.39,0,0,0,5.14-5.21l3-11.12.53-2,75.73-12.56L845,373.62a7.39,7.39,0,0,0,6.64,4.16ZM847.31,609h57l37.19,18.65c.2,4,.4,7.85.62,12.17l0,.55L810,640.88V627.52L847.31,609Zm-92.26,70.09,2.87-.15L762,691.13a7.38,7.38,0,0,0,6.48,5l28.71,2.07,19.39,1.4,4.59,12.19a7.39,7.39,0,0,0,6.91,4.78H941.39a7.39,7.39,0,0,0,7-5l3.76-11.05.55-1.63,20.11-1.7,10.55-.89a7.39,7.39,0,0,0,6.44-5.19l2.55-8.34,1-3.24h2.88v41.83c-1,.52-2.08,1-3.1,1.42a33.09,33.09,0,0,1-4.18,1.13c-1.15.27-2.45.57-4,1a7.39,7.39,0,0,0-5.55,6.7c-.51,8.33-1,16.75-1.57,25.32q-.74,11.88-1.5,24.16l-11.84,4a7.39,7.39,0,0,0-5,6.3c-.47,5-.94,10-1.41,15s-1,10.25-1.45,15.57l-2.63.83-8.92,2.81a7.38,7.38,0,0,0-5.13,6.26c-.82,7.63-1.61,15.05-2.44,22.79l-.75,7-3.63.16-.38-4.68a7.38,7.38,0,0,0-2.61-5.05L914.55,839c0-7.91.12-18.19.22-29s.21-21.93.24-31.05l3.79-1.28,8.52-2.87a7.38,7.38,0,0,0,5-6.56l2-34.45a7.39,7.39,0,0,0-5.28-7.52c-11.8-3.49-37.73-4.73-58.06-4.73-18.15,0-34.9,1-46,2.62a7.39,7.39,0,0,0-6.27,6.76c-.11,1.46-.25,3-.4,4.55a106.17,106.17,0,0,0-.69,12.43A125.21,125.21,0,0,0,818.89,761c.26,2.06.52,4.19.76,6.46a7.39,7.39,0,0,0,4.81,6.16l9.36,3.41,3.9,1.42v63L832,843.71l-5.8,2.38a7.38,7.38,0,0,0-4.14,4.33c-1.31,3.65-2.63,7.36-3.88,10.88h-3.06l-.4-3.31c-1.07-9-2.14-17.88-3.23-27a7.38,7.38,0,0,0-5.31-6.23l-7.54-2.15-3.53-1q-1.82-22-3.73-45.22l-.29-3.56a7.39,7.39,0,0,0-5.27-6.48l-11-3.25-.73-10.49c-.87-12.6-1.77-25.54-2.7-38.93a7.39,7.39,0,0,0-4.8-6.41l-9-3.33-2.54-.94V679.06Z" transform="translate(-560.38 -205.04)"/><path class="cls-3" d="M865,513.5v36.92H828.45V513.5H865m60.4.59v36.56H888.93V514.1H925.4m-60.4-5H828.45A4.43,4.43,0,0,0,824,513.5v36.92a4.43,4.43,0,0,0,4.43,4.43H865a4.43,4.43,0,0,0,4.43-4.43V513.5a4.43,4.43,0,0,0-4.43-4.43Zm60.4.59H888.93a4.43,4.43,0,0,0-4.43,4.43v36.56a4.43,4.43,0,0,0,4.43,4.43H925.4a4.43,4.43,0,0,0,4.43-4.43V514.1a4.43,4.43,0,0,0-4.43-4.43Z" transform="translate(-560.38 -205.04)"/><path class="cls-2" d="M818.66,472.83a3.69,3.69,0,0,1-.95-.12l-45.35-12a3.69,3.69,0,0,1-2.4-2l-8.56-18.22-16.67-14a3.69,3.69,0,0,1-1.28-3.36l5.13-35.51a3.69,3.69,0,0,1,2.85-3.08,21.78,21.78,0,0,0,2.54-.75,3.69,3.69,0,0,1,4.69,2.18l6.6,17.52,18.11,12.23,36.27,9.61L839,423.46l11.5-11.12a3.69,3.69,0,0,1,4.68-.37,31.68,31.68,0,0,0,3.71,2.26,3.69,3.69,0,0,1,2,3.81l-4.53,31.37a3.69,3.69,0,0,1-2.4,2.95l-22.15,8-10.41,11.29A3.69,3.69,0,0,1,818.66,472.83Z" transform="translate(-560.38 -205.04)"/><path class="cls-3" d="M755.2,387.25l7,18.62,19.6,13.24,37.51,9.94,21.31-2,12.42-12a35.2,35.2,0,0,0,4.14,2.53l-4.53,31.37-23,8.29-11,12-45.35-12-8.91-19-17.29-14.51,5.13-35.51a25.38,25.38,0,0,0,3-.87m0-7.39a7.37,7.37,0,0,0-2.46.42,18.08,18.08,0,0,1-2.1.63,7.39,7.39,0,0,0-5.7,6.15l-5.13,35.51a7.39,7.39,0,0,0,2.56,6.71l16,13.47,8.22,17.49a7.39,7.39,0,0,0,4.79,4l45.35,12a7.38,7.38,0,0,0,7.32-2.13l9.8-10.63,21.3-7.68a7.38,7.38,0,0,0,4.81-5.89l4.53-31.37a7.39,7.39,0,0,0-3.94-7.63,27.61,27.61,0,0,1-3.28-2,7.38,7.38,0,0,0-9.37.74L837.37,419.9,820,421.57l-35-9.28L768.3,401.07l-6.19-16.42a7.39,7.39,0,0,0-6.91-4.78Z" transform="translate(-560.38 -205.04)"/><rect x="265.85" y="311.24" width="40.98" height="41.35" rx="2.22" ry="2.22"/><path class="cls-3" d="M865,518.49v36.92H828.45V518.49H865m0-4.43H828.45a4.43,4.43,0,0,0-4.43,4.43v36.92a4.43,4.43,0,0,0,4.43,4.43H865a4.43,4.43,0,0,0,4.43-4.43V518.49a4.43,4.43,0,0,0-4.43-4.43Z" transform="translate(-560.38 -205.04)"/><rect x="326.33" y="311.83" width="40.9" height="40.99" rx="2.22" ry="2.22"/><path class="cls-3" d="M925.4,519.08v36.56H888.93V519.08H925.4m0-4.43H888.93a4.43,4.43,0,0,0-4.43,4.43v36.56a4.43,4.43,0,0,0,4.43,4.43H925.4a4.43,4.43,0,0,0,4.43-4.43V519.08a4.43,4.43,0,0,0-4.43-4.43Z" transform="translate(-560.38 -205.04)"/><polyline class="cls-4" points="259.47 416.6 269.06 427.21 281.58 426.38 290.94 400.95"/><polyline class="cls-4" points="368.6 417.62 359.01 428.22 346.49 427.4 337.13 401.97"/><path class="cls-2" d="M936.57,473.59a3.69,3.69,0,0,1-2.37-.86l-13-10.92-18.5-2.48a3.69,3.69,0,0,1-3.12-2.9l-7.28-34.81a3.69,3.69,0,0,1,1-3.36c.72-.72,1.39-1.53,2-2.31a3.69,3.69,0,0,1,2.69-1.33h.15a3.69,3.69,0,0,1,2.64,1.12l11,11.34,18.9.07L964.89,414l16.35-13.58,6.35-17.25a3.69,3.69,0,0,1,3.46-2.42h.79a22.55,22.55,0,0,0,3.1-.2,3.69,3.69,0,0,1,4.12,2.9l6.43,30.76a3.69,3.69,0,0,1-.73,3.07L988.19,438l-5.3,16.63a3.69,3.69,0,0,1-2.19,2.33l-42.8,16.43A3.7,3.7,0,0,1,936.57,473.59Z" transform="translate(-560.38 -205.04)"/><path class="cls-3" d="M995.45,384.24l6.43,30.76-17,21.19-5.51,17.29-42.8,16.43-13.86-11.61-19.56-2.63-7.28-34.81c.82-.82,1.54-1.69,2.26-2.56l12.13,12.45,21.14.08,35.39-13.58,17.58-14.6,6.69-18.18h.79a26.14,26.14,0,0,0,3.6-.23m0-7.39a7.44,7.44,0,0,0-1,.07,18.63,18.63,0,0,1-2.59.16h-.79a7.38,7.38,0,0,0-6.93,4.83l-6,16.32L963,410.78l-33,12.64-16.66-.06-10-10.23a7.39,7.39,0,0,0-5.29-2.23h-.3a7.38,7.38,0,0,0-5.39,2.67c-.6.72-1.21,1.46-1.81,2.06a7.39,7.39,0,0,0-2,6.72l7.28,34.81a7.39,7.39,0,0,0,6.25,5.81l17.44,2.34,12.22,10.24a7.38,7.38,0,0,0,7.39,1.23L982,460.37a7.39,7.39,0,0,0,4.39-4.65l5.09-16,16.14-20.12a7.38,7.38,0,0,0,1.47-6.13l-6.43-30.76a7.39,7.39,0,0,0-7.22-5.87Z" transform="translate(-560.38 -205.04)"/></svg>